# xmcd
#
# Track frame offsets: 
#        150
#        20590
#        31870
#        53122
#        73867
#        86875
#        104957
#        120865
#        139127
#        158582
#        178305
#        196947
#
# Disc length: 2910 seconds
#
# Revision: 66
# Processed by: cddbd v1.5.2PL0 Copyright (c) Steve Scherf et al.
# Submitted via: ExactAudioCopyFreeDBPlugin 1.0
#
DISCID=a80b5c0c
DTITLE=Garth Brooks - Scarecrow
DYEAR=2001
DGENRE=Country
TTITLE0=Why Ain't I Running
TTITLE1=Garth Brooks - George Jones - Beer Run (the duet with George Jo
TTITLE1=nes)
TTITLE2=Wrapped Up in You
TTITLE3=The Storm
TTITLE4=Thicker Than Blood
TTITLE5=Big Money
TTITLE6=Garth Brooks - Trisha Yearwood - Squeeze Me In (the duet with T
TTITLE6=risha Yearwood)
TTITLE7=Mr. Midnight
TTITLE8=Pushing Up Daisies
TTITLE9=Rodeo or Mexico
TTITLE10=Don't Cross the River
TTITLE11=When You Come Back to Me Again (theme from the movie Frequenc
TTITLE11=y)
EXTD=YEAR: 2001
EXTT0=
EXTT1=
EXTT2=
EXTT3=
EXTT4=
EXTT5=
EXTT6=
EXTT7=
EXTT8=
EXTT9=
EXTT10=
EXTT11=
PLAYORDER=
